<svg width="400" height="400" viewBox="0 0 400 400" fill="none" xmlns="http://www.w3.org/2000/svg">
<g clip-path="url(#clip0_87_3244)">
<path d="M400 0H0V400H400V0Z" fill="#09090B"/>
<path d="M200 95.1068C191.821 95.1068 183.86 96.0429 176.222 97.8177C137.385 106.816 106.816 137.385 97.8177 176.218C96.0429 183.86 95.1068 191.821 95.1068 200C95.1068 257.931 142.069 304.893 200 304.893C208.179 304.893 216.14 303.957 223.782 302.182C262.615 293.184 293.184 262.619 302.186 223.789C303.961 216.148 304.897 208.183 304.897 200C304.897 142.069 257.931 95.1068 200 95.1068ZM200 265.689C192.257 265.689 184.831 264.351 177.935 261.89C159.407 255.282 144.722 240.597 138.114 222.069C135.653 215.173 134.315 207.743 134.315 200C134.315 163.721 163.721 134.311 200 134.311C207.743 134.311 215.169 135.649 222.065 138.11C240.593 144.718 255.282 159.403 261.89 177.931C264.351 184.827 265.689 192.257 265.689 200C265.689 236.279 236.279 265.689 200 265.689Z" fill="url(#paint0_linear_87_3244)"/>
<path d="M200 157.664C176.62 157.664 157.664 176.62 157.664 200C157.664 223.38 176.62 242.336 200 242.336C223.38 242.336 242.336 223.38 242.336 200C242.336 176.62 223.384 157.664 200 157.664ZM200 225.599C185.865 225.599 174.401 214.14 174.401 200C174.401 185.861 185.865 174.401 200 174.401C214.136 174.401 225.599 185.861 225.599 200C225.599 214.14 214.14 225.599 200 225.599Z" fill="#FEFCFE"/>
<path d="M222.065 138.11C215.169 135.649 207.743 134.311 200 134.311C163.721 134.311 134.315 163.721 134.315 200C134.315 207.743 135.653 215.173 138.114 222.069C129.732 218.902 121.872 213.944 115.124 207.197C106.27 198.342 100.501 187.573 97.8177 176.218C106.816 137.385 137.385 106.816 176.222 97.8177C187.573 100.501 198.342 106.27 207.197 115.124C213.941 121.868 218.898 129.728 222.065 138.11Z" fill="url(#paint1_linear_87_3244)"/>
<path d="M302.186 223.789C293.184 262.619 262.615 293.184 223.782 302.182C212.431 299.499 201.662 293.73 192.807 284.876C186.06 278.128 181.102 270.268 177.935 261.89C184.831 264.351 192.257 265.689 200 265.689C236.279 265.689 265.689 236.279 265.689 200C265.689 192.257 264.351 184.827 261.89 177.931C270.268 181.098 278.128 186.056 284.876 192.804C293.73 201.658 299.503 212.435 302.186 223.789Z" fill="url(#paint2_linear_87_3244)"/>
<path d="M148.115 273.841C160.239 273.841 170.067 264.013 170.067 251.889C170.067 239.765 160.239 229.937 148.115 229.937C135.991 229.937 126.163 239.765 126.163 251.889C126.163 264.013 135.991 273.841 148.115 273.841Z" fill="url(#paint3_linear_87_3244)"/>
<path d="M252.08 169.876C264.204 169.876 274.032 160.048 274.032 147.924C274.032 135.8 264.204 125.972 252.08 125.972C239.956 125.972 230.128 135.8 230.128 147.924C230.128 160.048 239.956 169.876 252.08 169.876Z" fill="url(#paint4_linear_87_3244)"/>
</g>
<defs>
<linearGradient id="paint0_linear_87_3244" x1="273.166" y1="130.863" x2="129.112" y2="266.988" gradientUnits="userSpaceOnUse">
<stop stop-color="#F38856"/>
<stop offset="0.23" stop-color="#F0625C"/>
<stop offset="1" stop-color="#5C3DAB"/>
</linearGradient>
<linearGradient id="paint1_linear_87_3244" x1="193.361" y1="112.889" x2="111.423" y2="194.387" gradientUnits="userSpaceOnUse">
<stop stop-color="#F67986"/>
<stop offset="1" stop-color="#8951BA"/>
</linearGradient>
<linearGradient id="paint2_linear_87_3244" x1="287.076" y1="207.107" x2="205.137" y2="288.608" gradientUnits="userSpaceOnUse">
<stop stop-color="#F67986"/>
<stop offset="1" stop-color="#8951BA"/>
</linearGradient>
<linearGradient id="paint3_linear_87_3244" x1="164.142" y1="236.891" x2="132.084" y2="266.886" gradientUnits="userSpaceOnUse">
<stop stop-color="#A267B9"/>
<stop offset="1" stop-color="#704BB4"/>
</linearGradient>
<linearGradient id="paint4_linear_87_3244" x1="265.424" y1="135.434" x2="243.538" y2="155.916" gradientUnits="userSpaceOnUse">
<stop stop-color="#F7A8A5"/>
<stop offset="0.97" stop-color="#D074C4"/>
<stop offset="1" stop-color="#CF76A9"/>
</linearGradient>
<clipPath id="clip0_87_3244">
<rect width="400" height="400" rx="64" fill="white"/>
</clipPath>
</defs>
</svg>
