<svg width="116" height="37" viewBox="0 0 116 37" fill="none" xmlns="http://www.w3.org/2000/svg">
<path d="M18.5204 0.5C17.1168 0.5 15.7507 0.660642 14.4401 0.965194C7.77547 2.50937 2.52982 7.75502 0.985641 14.419C0.681089 15.7303 0.520447 17.0964 0.520447 18.5C0.520447 28.4411 8.57935 36.5 18.5204 36.5C19.9241 36.5 21.2902 36.3394 22.6014 36.0348C29.2654 34.4906 34.5111 29.2456 36.0559 22.5823C36.3605 21.2711 36.5211 19.9043 36.5211 18.5C36.5211 8.5589 28.4615 0.5 18.5204 0.5ZM18.5204 29.7724C17.1918 29.7724 15.9174 29.5428 14.734 29.1205C11.5546 27.9866 9.0345 25.4665 7.90063 22.2871C7.47828 21.1037 7.24869 19.8286 7.24869 18.5C7.24869 12.2744 12.2949 7.22758 18.5204 7.22758C19.8491 7.22758 21.1235 7.45716 22.3069 7.87952C25.4863 9.01339 28.0071 11.5335 29.1409 14.7129C29.5633 15.8963 29.7929 17.1714 29.7929 18.5C29.7929 24.7256 24.746 29.7724 18.5204 29.7724Z" fill="url(#paint0_linear_84_244)"/>
<path d="M18.5204 11.235C14.5084 11.235 11.2554 14.488 11.2554 18.5C11.2554 22.5121 14.5084 25.7651 18.5204 25.7651C22.5325 25.7651 25.7855 22.5121 25.7855 18.5C25.7855 14.488 22.5331 11.235 18.5204 11.235ZM18.5204 22.8929C16.0947 22.8929 14.1275 20.9264 14.1275 18.5C14.1275 16.0736 16.0947 14.1071 18.5204 14.1071C20.9461 14.1071 22.9133 16.0736 22.9133 18.5C22.9133 20.9264 20.9468 22.8929 18.5204 22.8929Z" fill="#FEFCFE"/>
<path d="M22.3069 7.87953C21.1235 7.45718 19.8491 7.22759 18.5204 7.22759C12.2949 7.22759 7.24868 12.2744 7.24868 18.5C7.24868 19.8287 7.47826 21.1038 7.90062 22.2872C6.4622 21.7437 5.11347 20.8929 3.95551 19.735C2.43609 18.2155 1.44613 16.3675 0.985626 14.419C2.5298 7.75504 7.77545 2.50939 14.4401 0.96521C16.3879 1.42572 18.236 2.41568 19.7554 3.93509C20.9127 5.09239 21.7634 6.44111 22.3069 7.87953Z" fill="url(#paint1_linear_84_244)"/>
<path d="M36.0559 22.5823C34.5111 29.2457 29.2654 34.4906 22.6014 36.0348C20.6536 35.5743 18.8056 34.5843 17.2862 33.0649C16.1282 31.907 15.2775 30.5582 14.734 29.1205C15.9174 29.5428 17.1918 29.7724 18.5204 29.7724C24.746 29.7724 29.7929 24.7256 29.7929 18.5C29.7929 17.1714 29.5633 15.8963 29.1409 14.7129C30.5787 15.2564 31.9274 16.1071 33.0854 17.2651C34.6048 18.7845 35.5954 20.6339 36.0559 22.5823Z" fill="url(#paint2_linear_84_244)"/>
<path d="M9.61682 31.1713C11.6973 31.1713 13.3839 29.4848 13.3839 27.4043C13.3839 25.3238 11.6973 23.6372 9.61682 23.6372C7.53633 23.6372 5.84975 25.3238 5.84975 27.4043C5.84975 29.4848 7.53633 31.1713 9.61682 31.1713Z" fill="url(#paint3_linear_84_244)"/>
<path d="M27.4575 13.3306C29.538 13.3306 31.2246 11.6441 31.2246 9.56358C31.2246 7.48308 29.538 5.79651 27.4575 5.79651C25.377 5.79651 23.6905 7.48308 23.6905 9.56358C23.6905 11.6441 25.377 13.3306 27.4575 13.3306Z" fill="url(#paint4_linear_84_244)"/>
<path d="M115.281 15.1087V17.0973H109.009V15.1087H115.281ZM110.558 12.495H113.129V22.7365C113.129 23.0821 113.181 23.3473 113.285 23.532C113.394 23.7119 113.536 23.835 113.711 23.9013C113.886 23.9676 114.08 24.0007 114.293 24.0007C114.454 24.0007 114.601 23.9889 114.734 23.9652C114.871 23.9415 114.975 23.9202 115.046 23.9013L115.48 25.9112C115.342 25.9586 115.146 26.0107 114.89 26.0675C114.639 26.1243 114.331 26.1574 113.967 26.1669C113.323 26.1858 112.743 26.0888 112.227 25.8757C111.711 25.6579 111.301 25.3217 110.998 24.8672C110.7 24.4126 110.553 23.8445 110.558 23.1626V12.495Z" fill="#D4D4D8"/>
<path d="M104.618 26.0177V15.1087H107.189V26.0177H104.618ZM105.911 13.5604C105.504 13.5604 105.153 13.4254 104.86 13.1555C104.566 12.8809 104.42 12.5518 104.42 12.1683C104.42 11.7801 104.566 11.451 104.86 11.1811C105.153 10.9065 105.504 10.7692 105.911 10.7692C106.323 10.7692 106.673 10.9065 106.962 11.1811C107.256 11.451 107.403 11.7801 107.403 12.1683C107.403 12.5518 107.256 12.8809 106.962 13.1555C106.673 13.4254 106.323 13.5604 105.911 13.5604Z" fill="#D4D4D8"/>
<path d="M92.1344 26.0177V11.4723H94.7054V16.9126H94.812C94.9445 16.6475 95.1316 16.3658 95.373 16.0675C95.6145 15.7644 95.9412 15.5064 96.3532 15.2933C96.7651 15.0755 97.2907 14.9666 97.9299 14.9666C98.7727 14.9666 99.5326 15.182 100.21 15.6129C100.892 16.0391 101.431 16.6712 101.829 17.5092C102.231 18.3426 102.433 19.3653 102.433 20.5774C102.433 21.7753 102.236 22.7933 101.843 23.6314C101.45 24.4694 100.915 25.1087 100.238 25.549C99.561 25.9893 98.794 26.2095 97.937 26.2095C97.312 26.2095 96.7935 26.1053 96.3816 25.897C95.9696 25.6887 95.6382 25.4377 95.3872 25.1442C95.141 24.8459 94.9493 24.5641 94.812 24.299H94.6628V26.0177H92.1344ZM94.6557 20.5632C94.6557 21.2687 94.7551 21.8866 94.954 22.4169C95.1576 22.9472 95.4488 23.3615 95.8276 23.6598C96.2111 23.9534 96.6751 24.1001 97.2196 24.1001C97.7878 24.1001 98.2637 23.9486 98.6472 23.6456C99.0307 23.3378 99.3195 22.9188 99.5137 22.3885C99.7125 21.8534 99.812 21.245 99.812 20.5632C99.812 19.8861 99.7149 19.2848 99.5208 18.7592C99.3266 18.2337 99.0378 17.8217 98.6543 17.5234C98.2708 17.2251 97.7925 17.076 97.2196 17.076C96.6704 17.076 96.204 17.2204 95.8205 17.5092C95.437 17.798 95.1458 18.2029 94.9469 18.7237C94.7528 19.2445 94.6557 19.8577 94.6557 20.5632Z" fill="#D4D4D8"/>
<path d="M84.0911 26.0177V15.1086H86.584V16.9268H86.6976C86.8965 16.2971 87.2374 15.8118 87.7203 15.4709C88.208 15.1252 88.7644 14.9524 89.3894 14.9524C89.5314 14.9524 89.69 14.9595 89.8652 14.9737C90.0451 14.9832 90.1943 14.9997 90.3127 15.0234V17.3885C90.2038 17.3506 90.0309 17.3174 89.7942 17.289C89.5622 17.2559 89.3373 17.2393 89.1195 17.2393C88.6507 17.2393 88.2293 17.3411 87.8553 17.5447C87.486 17.7436 87.1948 18.0206 86.9817 18.3757C86.7686 18.7308 86.6621 19.1404 86.6621 19.6044V26.0177H84.0911Z" fill="#D4D4D8"/>
<path d="M76.6816 26.2308C75.6163 26.2308 74.693 25.9964 73.9117 25.5277C73.1305 25.0589 72.5244 24.4032 72.0936 23.5604C71.6674 22.7176 71.4544 21.7327 71.4544 20.6058C71.4544 19.4789 71.6674 18.4917 72.0936 17.6442C72.5244 16.7966 73.1305 16.1385 73.9117 15.6697C74.693 15.201 75.6163 14.9666 76.6816 14.9666C77.747 14.9666 78.6703 15.201 79.4515 15.6697C80.2328 16.1385 80.8365 16.7966 81.2626 17.6442C81.6935 18.4917 81.9089 19.4789 81.9089 20.6058C81.9089 21.7327 81.6935 22.7176 81.2626 23.5604C80.8365 24.4032 80.2328 25.0589 79.4515 25.5277C78.6703 25.9964 77.747 26.2308 76.6816 26.2308ZM76.6958 24.1712C77.2735 24.1712 77.7564 24.0125 78.1447 23.6953C78.533 23.3733 78.8218 22.9425 79.0112 22.4027C79.2053 21.8629 79.3024 21.2616 79.3024 20.5987C79.3024 19.9311 79.2053 19.3274 79.0112 18.7876C78.8218 18.2431 78.533 17.8099 78.1447 17.4879C77.7564 17.166 77.2735 17.005 76.6958 17.005C76.104 17.005 75.6116 17.166 75.2186 17.4879C74.8303 17.8099 74.5391 18.2431 74.345 18.7876C74.1556 19.3274 74.0609 19.9311 74.0609 20.5987C74.0609 21.2616 74.1556 21.8629 74.345 22.4027C74.5391 22.9425 74.8303 23.3733 75.2186 23.6953C75.6116 24.0125 76.104 24.1712 76.6958 24.1712Z" fill="#D4D4D8"/>
<path d="M67.7061 26.174C67.2753 26.174 66.9059 26.0225 66.5982 25.7195C66.2904 25.4164 66.1389 25.0471 66.1436 24.6115C66.1389 24.1854 66.2904 23.8208 66.5982 23.5177C66.9059 23.2147 67.2753 23.0632 67.7061 23.0632C68.1228 23.0632 68.485 23.2147 68.7928 23.5177C69.1053 23.8208 69.2639 24.1854 69.2686 24.6115C69.2639 24.9003 69.1881 25.1631 69.0414 25.3999C68.8993 25.6366 68.7099 25.826 68.4732 25.968C68.2412 26.1053 67.9855 26.174 67.7061 26.174Z" fill="#D4D4D8"/>
<path d="M56.5058 19.6257V26.0177H53.9348V15.1087H56.3922V16.9624H56.5201C56.771 16.3516 57.1711 15.8662 57.7203 15.5064C58.2743 15.1465 58.9585 14.9666 59.7729 14.9666C60.5257 14.9666 61.1815 15.1276 61.7402 15.4496C62.3037 15.7715 62.7393 16.2379 63.047 16.8487C63.3595 17.4595 63.5134 18.2005 63.5087 19.0717V26.0177H60.9377V19.4695C60.9377 18.7403 60.7483 18.1697 60.3695 17.7578C59.9954 17.3459 59.477 17.1399 58.8141 17.1399C58.3643 17.1399 57.9642 17.2393 57.6138 17.4382C57.2682 17.6323 56.9959 17.9141 56.797 18.2834C56.6029 18.6527 56.5058 19.1001 56.5058 19.6257Z" fill="#D4D4D8"/>
<path d="M48.72 26.0177V15.1087H51.291V26.0177H48.72ZM50.0126 13.5604C49.6054 13.5604 49.255 13.4254 48.9615 13.1555C48.6679 12.8809 48.5211 12.5518 48.5211 12.1683C48.5211 11.7801 48.6679 11.451 48.9615 11.1811C49.255 10.9065 49.6054 10.7692 50.0126 10.7692C50.4245 10.7692 50.7749 10.9065 51.0637 11.1811C51.3573 11.451 51.5041 11.7801 51.5041 12.1683C51.5041 12.5518 51.3573 12.8809 51.0637 13.1555C50.7749 13.4254 50.4245 13.5604 50.0126 13.5604Z" fill="#D4D4D8"/>
<defs>
<linearGradient id="paint0_linear_84_244" x1="31.076" y1="6.63588" x2="6.35579" y2="29.9953" gradientUnits="userSpaceOnUse">
<stop stop-color="#F38856"/>
<stop offset="0.23" stop-color="#F0625C"/>
<stop offset="1" stop-color="#5C3DAB"/>
</linearGradient>
<linearGradient id="paint1_linear_84_244" x1="17.3812" y1="3.55156" x2="3.3203" y2="17.5368" gradientUnits="userSpaceOnUse">
<stop stop-color="#F67986"/>
<stop offset="1" stop-color="#8951BA"/>
</linearGradient>
<linearGradient id="paint2_linear_84_244" x1="33.4629" y1="19.7196" x2="19.402" y2="33.7055" gradientUnits="userSpaceOnUse">
<stop stop-color="#F67986"/>
<stop offset="1" stop-color="#8951BA"/>
</linearGradient>
<linearGradient id="paint3_linear_84_244" x1="12.3672" y1="24.8306" x2="6.86582" y2="29.9779" gradientUnits="userSpaceOnUse">
<stop stop-color="#A267B9"/>
<stop offset="1" stop-color="#704BB4"/>
</linearGradient>
<linearGradient id="paint4_linear_84_244" x1="29.7473" y1="7.42034" x2="25.9917" y2="10.9351" gradientUnits="userSpaceOnUse">
<stop stop-color="#F7A8A5"/>
<stop offset="0.97" stop-color="#D074C4"/>
<stop offset="1" stop-color="#CF76A9"/>
</linearGradient>
</defs>
</svg>
