<svg width="320" height="321" viewBox="0 0 320 321" fill="none" xmlns="http://www.w3.org/2000/svg">
<path d="M172.048 194.276C171.63 189.285 171.475 184.275 171.584 179.268C171.584 178.852 170.976 178.74 170.928 179.268C170.405 184.287 170.459 189.349 171.088 194.356C171.099 194.483 171.16 194.601 171.257 194.684C171.355 194.766 171.481 194.807 171.608 194.796C171.736 194.785 171.853 194.725 171.936 194.627C172.019 194.53 172.059 194.403 172.048 194.276ZM164.8 192.404C164.829 192.469 164.876 192.524 164.936 192.563C164.996 192.601 165.065 192.622 165.136 192.622C165.207 192.622 165.277 192.601 165.337 192.563C165.396 192.524 165.443 192.469 165.472 192.404C165.248 187.364 165.04 182.308 164.816 177.252C164.816 177.167 164.783 177.086 164.723 177.026C164.663 176.966 164.581 176.932 164.496 176.932C164.411 176.932 164.33 176.966 164.27 177.026C164.21 177.086 164.176 177.167 164.176 177.252C163.963 181.069 164.006 184.897 164.304 188.708C164.315 189.956 164.481 191.198 164.8 192.404ZM206.736 193.044C206.893 195.516 206.617 197.996 205.92 200.372C205.92 200.74 206.992 202.772 207.664 196.932C208.086 192.988 207.263 189.01 205.312 185.556C205.104 185.172 204.56 185.556 204.736 185.892C205.844 188.13 206.522 190.556 206.736 193.044ZM187.344 77.3801C187.333 78.5841 187.74 79.7547 188.496 80.6921C189.456 81.5561 190.944 78.1961 195.408 77.6681V73.3481C192.294 73.576 189.395 75.0252 187.344 77.3801ZM229.408 192.948C229.408 189.652 229.12 186.372 229.056 183.076C229.056 182.628 228.368 182.724 228.368 183.172C228.368 186.58 228.368 190.02 228.512 193.444C228.576 195.7 229.456 194.868 229.408 192.948ZM198.4 73.2681L198.496 77.5881C204.016 77.7801 205.616 81.9401 206.208 80.6441C206.464 80.0521 207.504 77.0921 206.944 76.5801C204.595 74.4712 201.557 73.2933 198.4 73.2681ZM83.5683 47.3001C82.7363 47.7481 83.5683 49.7161 84.2243 49.2841C84.8803 48.8521 84.4803 46.7721 83.5683 47.3001ZM82.5123 42.4841C81.3923 42.5961 81.3603 43.7481 82.5123 43.8921C83.3468 43.9568 84.1561 44.2084 84.8803 44.6281C85.3123 44.9161 85.7763 44.3401 85.5203 43.9401C85.1907 43.4549 84.7392 43.0649 84.2112 42.8094C83.6833 42.5538 83.0974 42.4416 82.5123 42.4841ZM79.6483 48.1161C80.0765 49.2392 80.4136 50.3949 80.6563 51.5721C80.9283 52.9481 80.9123 53.3161 80.8483 53.3961C80.5899 53.4044 80.3328 53.4365 80.0803 53.4921C79.6163 53.6521 79.6163 54.2441 80.3363 54.5801C80.5316 54.6788 80.7521 54.7163 80.969 54.6877C81.1859 54.6592 81.3892 54.5659 81.5523 54.4201C82.3843 53.6201 82.0323 51.3641 80.5283 47.7161C80.4753 47.5994 80.378 47.5085 80.258 47.4635C80.138 47.4185 80.005 47.423 79.8883 47.4761C79.7716 47.5291 79.6808 47.6263 79.6358 47.7464C79.5908 47.8664 79.5953 47.9994 79.6483 48.1161Z" fill="#27272A"/>
<path d="M311.552 240.852H288.848C290.944 229.652 278.496 221.764 270.752 225.892C269.957 222.011 267.772 218.554 264.608 216.171C261.443 213.787 257.518 212.641 253.568 212.948C253.147 210.199 252.107 207.581 250.527 205.292C248.948 203.003 246.869 201.102 244.448 199.732C243.696 190.772 244.032 181.652 244.048 172.804C245.408 172.9 248.672 173.204 248.144 171.908C246.544 167.94 243.808 161.316 241.744 157.508C242.576 157.508 243.52 157.508 243.52 156.66C243.776 141.3 244.272 109.076 244.272 109.076C244.528 90.0041 245.168 68.0841 231.776 52.3881C231.36 51.8921 230.784 51.7161 230.416 52.2281C224.968 59.9412 221.386 68.8144 219.952 78.1481C219.408 69.0281 218.688 58.7241 217.28 48.5321C214.88 31.2361 209.088 19.6201 199.68 12.7241C198.784 12.0681 197.472 11.0121 196.88 11.4281C182.192 21.8281 177.872 39.9721 176.848 53.3641C176.48 59.0601 176.368 64.8361 176.512 70.5641C174.544 63.2201 167.792 48.8841 165.312 52.3401C153.76 68.8841 154.736 90.2601 155.712 109.124C157.312 145.06 157.792 154.324 158 156.74C158 157.524 158 158.052 160.208 157.812C155.552 170.148 154.592 172.212 155.008 172.564C155.424 172.916 157.072 172.804 157.872 172.756C157.76 178.148 159.04 204.356 158.864 205.748C157.703 207.163 156.769 208.75 156.096 210.452C153.369 211.194 150.837 212.526 148.681 214.353C146.525 216.181 144.796 218.459 143.616 221.028C141.488 220.82 139.342 221.173 137.392 222.052C135.472 200.756 131.536 168.564 126.72 147.124C134.96 148.196 138.896 144.5 140.8 141.3C145.6 132.932 142.4 119.028 136.448 111.332C131.41 100.614 124.022 91.1698 114.832 83.7001C115.808 81.8441 113.232 73.4121 106.688 69.9401C103.888 68.4521 100.16 68.3401 98.4482 66.7401C94.7842 63.1561 97.2482 53.6201 89.6162 51.1241C89.1226 47.1806 88.3038 43.2847 87.1682 39.4761C96.7682 35.3481 96.2722 24.1801 90.6082 21.0121C85.3282 18.0681 82.4162 22.2441 78.9442 23.4121C74.1442 25.0121 70.0642 21.5561 63.7602 21.5561C51.8722 21.5561 49.0562 33.5241 48.4322 34.1161C47.8082 34.7081 47.5682 38.0841 42.2722 40.1641C36.6402 42.3561 29.4722 42.4841 26.4162 49.1081C23.8242 54.9001 28.8002 61.9721 25.3762 67.3321C23.3762 70.5321 16.1922 70.7241 10.9762 79.0921C5.39222 88.0041 7.26422 100.1 14.9602 105.124C8.33622 120.004 8.64022 135.828 15.7442 146.484C22.2402 156.196 32.8322 159.844 44.3362 159.54C43.7602 186.644 44.0002 213.668 42.5602 240.948C37.3602 240.948 32.1442 241.06 27.0402 241.156C26.8959 241.156 26.7576 241.213 26.6556 241.315C26.5535 241.417 26.4962 241.556 26.4962 241.7C26.4962 241.844 26.5535 241.983 26.6556 242.085C26.7576 242.187 26.8959 242.244 27.0402 242.244C31.6002 242.34 36.9922 242.436 42.4642 242.436C41.5842 258.324 40.4002 274.436 38.9442 290.228C38.8002 291.828 42.5442 291.732 44.1282 291.828C43.6907 294.05 43.5242 296.318 43.6322 298.58C42.4162 299.652 40.6402 306.98 40.7362 308.34C40.7362 308.628 40.8642 308.804 41.0562 308.836C42.8162 309.124 69.4082 310.436 70.6402 308.98C70.671 308.924 70.6872 308.86 70.6872 308.796C70.6872 308.732 70.671 308.669 70.6402 308.612C68.8642 303.812 62.6402 299.764 57.5522 298.452L58.9282 292.324C59.9842 292.324 62.1282 292.484 62.4322 291.924C69.5842 275.796 76.0962 259.14 81.7762 242.452H105.04C109.472 256.678 113.384 271.061 116.768 285.572C118.128 291.428 117.184 291.108 120.96 291.284C120.942 293.566 121.217 295.84 121.776 298.052C120.549 300.94 119.808 304.011 119.584 307.14C119.553 307.194 119.537 307.254 119.537 307.316C119.537 307.378 119.553 307.439 119.584 307.492C120.592 308.772 149.312 309.844 151.28 308.676C152.88 307.652 144.112 299.156 136.336 297.588C136.448 295.545 136.4 293.496 136.192 291.46C137.552 291.46 140.688 291.828 140.688 290.484C140.688 275.38 140.176 259.204 139.088 242.484H311.6C311.817 242.478 312.022 242.386 312.17 242.228C312.319 242.071 312.399 241.861 312.392 241.644C312.386 241.428 312.294 241.223 312.136 241.074C311.979 240.926 311.769 240.846 311.552 240.852ZM94.8322 212.308C98.8162 223.268 100.944 230.084 104.544 240.996H82.2562C86.1442 229.492 91.5202 212.196 95.0562 197.652C96.2562 192.852 98.6722 194.884 97.7922 198.788C96.7682 203.604 94.7842 212.196 94.8322 212.308ZM135.2 297.748C132.464 298.996 125.6 298.916 122.928 298.148C122.752 295.86 122.288 293.572 122.256 291.284L134.832 291.428C134.944 293.54 135.072 295.636 135.2 297.748ZM45.6002 159.524C59.0402 158.852 75.0242 152.708 88.4002 143.06C88.6882 142.852 88.9442 142.804 89.0242 142.532C89.1042 142.26 89.0242 142.036 88.5442 141.348C92.3016 139.589 96.247 138.263 100.304 137.396C101.904 137.108 106.592 136.212 107.44 133.668L110.928 133.572C114.288 140.532 119.632 145.364 125.616 146.868L128.816 165.892C102.384 174.996 78.2562 176.932 45.6962 172.5C45.8082 168.196 45.8242 163.828 45.6482 159.524H45.6002ZM87.5362 62.0041C85.2962 67.8121 80.6242 68.0521 81.3762 69.4281V69.9241C81.6802 72.4681 82.2722 77.7001 78.1762 81.3961C71.2642 78.6441 66.9762 75.4761 63.7762 70.8681C64.4482 69.7001 63.7762 64.5961 63.7762 64.5481C62.7842 59.3321 58.2402 58.2761 59.2642 53.5561C59.4082 52.8681 59.6162 52.4681 59.8882 52.3401C60.7842 51.9401 63.0882 55.0281 63.5682 51.4441C64.3202 46.3241 65.7602 42.3721 70.8322 40.9321C75.5362 39.6041 80.0802 41.8761 86.1602 39.7801C87.5362 45.4761 89.9042 55.7801 87.5362 62.0041ZM78.4162 82.8041C81.1842 82.1161 83.5522 75.3161 82.9762 71.5081C87.2943 72.1181 91.547 73.125 95.6802 74.5161C110.72 79.8761 123.776 91.3321 132.592 106.884C126.576 101.124 118.704 97.8761 111.584 98.3241C109.314 94.6039 106.706 91.1011 103.792 87.8601C103.749 87.812 103.696 87.7736 103.636 87.7473C103.577 87.721 103.513 87.7075 103.448 87.7075C103.383 87.7075 103.319 87.721 103.26 87.7473C103.201 87.7736 103.148 87.812 103.104 87.8601C103.058 87.9048 103.022 87.9583 102.997 88.0174C102.972 88.0765 102.959 88.1399 102.959 88.2041C102.959 88.2682 102.972 88.3317 102.997 88.3908C103.022 88.4499 103.058 88.5033 103.104 88.5481C105.661 91.7269 108.017 95.0613 110.16 98.5321C108.04 98.8521 105.995 99.557 104.128 100.612C103.826 100.642 103.526 100.695 103.232 100.772C102.354 100.971 101.46 101.094 100.56 101.14C96.8162 101.14 96.6722 99.5401 95.3282 99.7161C92.6562 99.9881 93.4402 105.268 99.5842 106.388C98.4802 109.476 97.9842 116.276 100.048 119.188C97.5842 119.188 96.0002 118.676 95.9042 121.188C95.8721 121.641 95.8721 122.095 95.9042 122.548C95.1109 122.038 94.2129 121.712 93.2768 121.596C92.3406 121.479 91.3903 121.575 90.4962 121.876C88.8162 122.516 85.6162 125.86 84.0002 127.252C84.0002 126.58 84.0002 125.556 83.4082 125.492C73.2482 124.644 57.8082 124.404 48.5602 124.66C48.0532 118.132 48.1389 111.572 48.8162 105.06C48.8438 104.926 48.8172 104.787 48.7421 104.673C48.6671 104.559 48.5499 104.48 48.4162 104.452C48.2826 104.424 48.1434 104.451 48.0294 104.526C47.9154 104.601 47.8358 104.718 47.8082 104.852C47.2962 107.732 46.3042 119.476 47.3442 124.708L34.2402 125.572C34.1435 125.581 34.0518 125.62 33.9772 125.682C33.9027 125.744 33.8489 125.828 33.8229 125.921C33.7969 126.015 33.7999 126.114 33.8316 126.206C33.8632 126.298 33.922 126.378 34.0002 126.436C34.0453 126.476 34.099 126.506 34.1572 126.523C34.2154 126.539 34.2766 126.543 34.3362 126.532C50.4902 125.543 66.6927 125.65 82.8322 126.852C82.9066 132.258 84.5339 137.529 87.5202 142.036C66.1762 157.412 31.0562 167.46 16.7202 145.668C6.40022 130.1 11.5202 102.9 30.6562 86.2921C39.7965 78.4554 50.9172 73.2853 62.8002 71.3481C65.6962 76.8681 76.3202 83.2841 78.4002 82.7721L78.4162 82.8041ZM102.128 102.196C101.313 103.057 100.628 104.033 100.096 105.092C97.1042 104.644 95.4082 103.076 95.1202 101.78C94.8962 100.884 95.4242 100.516 96.5282 101.268C98.2649 102.115 100.211 102.438 102.128 102.196ZM109.904 111.012C109.823 111.105 109.775 111.223 109.768 111.346C109.76 111.47 109.794 111.592 109.863 111.694C109.933 111.796 110.034 111.873 110.151 111.912C110.269 111.95 110.396 111.949 110.512 111.908C111.808 111.396 112.416 111.508 112.512 111.748C112.608 111.988 112.096 113.172 111.056 113.684C110.384 114.02 109.088 114.324 108.096 112.516C107.28 111.044 108.672 109.428 108.096 109.092C107.52 108.756 105.888 111.236 107.28 113.412C106.993 113.623 106.649 113.743 106.292 113.757C105.936 113.772 105.584 113.679 105.28 113.492C104.576 112.948 104.096 111.428 104.912 108.692C105.216 107.636 103.424 107.364 103.2 111.892C103.104 112.516 102.416 116.356 102.208 117.652C102 118.948 101.712 119.044 101.68 119.06C101.648 119.076 101.504 119.06 101.376 118.884C100.24 117.604 98.8802 111.092 101.056 106.084C101.733 104.395 102.888 102.941 104.381 101.9C105.873 100.86 107.638 100.279 109.456 100.228C110.526 100.208 111.584 100.446 112.542 100.923C113.5 101.399 114.328 102.1 114.957 102.966C115.585 103.832 115.995 104.837 116.152 105.895C116.308 106.953 116.207 108.033 115.856 109.044C115.684 109.582 115.391 110.073 115 110.481C114.609 110.888 114.13 111.201 113.6 111.396C113.418 111.084 113.164 110.819 112.86 110.623C112.555 110.427 112.209 110.305 111.849 110.268C111.49 110.23 111.126 110.278 110.788 110.407C110.45 110.537 110.147 110.744 109.904 111.012ZM98.1282 124.564C97.9322 124.012 97.5541 123.544 97.0562 123.236L97.2482 120.644H104.832C104.832 121.508 105.072 124.052 105.072 124.052C102.748 124.062 100.428 124.233 98.1282 124.564ZM103.088 119.204C103.511 117.456 103.815 115.681 104 113.892C104.52 114.459 105.227 114.819 105.991 114.907C106.755 114.995 107.525 114.805 108.16 114.372L108.416 114.548C107.732 117.672 107.645 120.896 108.16 124.052H106.56C106.604 122.538 106.437 121.025 106.064 119.556C105.6 119.14 103.792 119.204 103.088 119.204ZM90.7682 123.076C91.8406 122.808 92.9647 122.828 94.0268 123.134C95.0889 123.441 96.0512 124.022 96.8162 124.82C97.1042 125.3 97.0562 125.46 97.0402 125.508C97.0242 125.556 96.0802 125.684 95.4402 125.652C94.4947 125.499 93.5251 125.633 92.6562 126.036C91.3371 127.094 90.4727 128.617 90.2402 130.292C90.0002 134.372 101.792 133.86 105.824 133.732C102.848 136.772 93.9842 136.084 87.9842 140.276C85.8875 136.659 84.5534 132.652 84.0642 128.5C85.1202 128.02 89.0722 123.812 90.7682 123.076ZM140.8 138.292C137.344 148.388 126.512 145.796 126.064 145.684C118.512 143.78 114.144 136.74 112.496 133.476C114.288 133.06 113.776 131.3 113.6 129.604L127.552 129.284C128.672 131.412 131.328 130.708 131.2 128.58C131.217 128.117 131.07 127.663 130.787 127.296C130.504 126.93 130.101 126.674 129.649 126.573C129.196 126.472 128.723 126.533 128.311 126.745C127.899 126.957 127.574 127.306 127.392 127.732C125.392 127.556 115.552 127.828 113.488 128.052C113.248 123.764 113.488 124.068 109.536 124.084C109.168 121.077 109.168 118.036 109.536 115.028C110.374 115.184 111.241 115.041 111.984 114.623C112.727 114.204 113.299 113.538 113.6 112.74C116.256 112.404 118.928 107.796 116.576 102.868C116.136 102.041 115.529 101.314 114.794 100.733C114.059 100.152 113.211 99.7292 112.304 99.4921C124.512 99.1721 135.568 109.012 139.984 120.724C140.208 120.724 140.352 120.564 139.984 120.724C142.257 126.314 142.545 132.515 140.8 138.292ZM57.6002 292.292C57.0914 294.308 56.7173 296.355 56.4802 298.42C52.5885 298.823 48.6678 298.866 44.7682 298.548C45.0242 296.324 45.2642 294.116 45.5042 291.892L57.6002 292.292ZM270.88 226.836C274.368 223.972 289.792 227.62 287.488 240.9H138.992L137.6 223.172C145.712 220.356 151.664 224.644 153.76 229.86C154.128 230.836 156.192 230.004 152.976 225.988C150.933 223.462 148.047 221.758 144.848 221.188C152.592 206.276 174.512 208.66 178.768 224.692C178.992 225.54 180.256 225.124 180.032 224.276C178.748 219.548 175.73 215.478 171.578 212.877C167.426 210.276 162.446 209.336 157.632 210.244C158.989 207.517 160.996 205.166 163.477 203.398C165.958 201.631 168.837 200.502 171.857 200.112C174.878 199.721 177.949 200.081 180.798 201.159C183.647 202.236 186.186 204 188.192 206.292C189.664 207.892 194.592 217.268 196.192 218.372C194.877 220.628 194.053 223.136 193.776 225.732C191.798 226.457 190 227.6 188.503 229.082C187.007 230.565 185.847 232.353 185.104 234.324C185.051 234.445 185.048 234.582 185.096 234.705C185.144 234.828 185.239 234.927 185.36 234.98C185.481 235.033 185.618 235.036 185.741 234.988C185.864 234.94 185.963 234.845 186.016 234.724C186.984 232.482 188.52 230.53 190.472 229.063C192.424 227.595 194.726 226.662 197.149 226.355C199.572 226.048 202.033 226.378 204.289 227.313C206.546 228.247 208.52 229.754 210.016 231.684C210.122 231.833 210.283 231.933 210.463 231.963C210.643 231.993 210.828 231.95 210.976 231.844C211.125 231.738 211.225 231.577 211.255 231.397C211.285 231.217 211.242 231.033 211.136 230.884C209.293 228.443 206.76 226.611 203.865 225.625C200.971 224.638 197.846 224.541 194.896 225.348C195.366 222.8 196.347 220.374 197.78 218.216C199.213 216.057 201.067 214.211 203.232 212.788C205.85 211.11 208.851 210.124 211.954 209.924C215.057 209.724 218.16 210.315 220.972 211.642C223.784 212.97 226.212 214.99 228.029 217.513C229.846 220.037 230.993 222.98 231.36 226.068C231.395 226.228 231.486 226.369 231.618 226.466C231.749 226.563 231.911 226.609 232.073 226.595C232.236 226.581 232.388 226.509 232.501 226.391C232.614 226.274 232.681 226.119 232.688 225.956C232.264 222.434 230.902 219.091 228.743 216.276C226.584 213.461 223.708 211.279 220.416 209.956C221.484 207.139 223.257 204.643 225.565 202.707C227.873 200.771 230.64 199.46 233.6 198.9C242.944 197.46 250.96 204.644 252.144 213.108C249.696 213.513 247.372 214.468 245.346 215.901C243.32 217.334 241.646 219.207 240.448 221.38C240.16 221.924 241.04 222.404 241.344 221.876C243.091 218.923 245.76 216.626 248.939 215.337C252.119 214.047 255.634 213.838 258.944 214.74C262.129 215.755 264.9 217.772 266.844 220.492C268.788 223.211 269.8 226.486 269.728 229.828C269.728 230.26 270.304 230.804 270.736 230.5C270.912 230.388 271.424 230.02 270.896 226.836H270.88ZM178.32 54.2281C189.296 52.3081 200.72 51.9721 216.48 53.1401C219.008 74.8841 219.376 95.3641 219.776 117.236C216.704 110.452 213.584 100.548 213.632 93.7161C213.617 85.7685 211.685 77.9417 208 70.9001C203.616 62.5321 197.68 56.6121 191.216 63.5561C182.256 73.1561 182.896 84.7401 183.072 97.5881C182.479 103.302 181.25 108.931 179.408 114.372C178.848 87.7001 177.296 68.0521 178.32 54.2281ZM242.448 156.212C241.271 156.028 240.073 156.028 238.896 156.212L239.056 143.604C239.103 143.318 239.084 143.026 239.001 142.749C238.918 142.471 238.773 142.217 238.576 142.004C234.912 138.932 224.656 129.044 221.264 120.228C221.264 110.948 221.12 101.54 220.752 92.2601C228.864 92.0201 236.448 92.1161 242.832 92.2601C243.472 107.86 242.272 135.124 242.448 156.212ZM178.544 199.012C175.305 198.292 171.936 198.401 168.751 199.33C165.565 200.259 162.665 201.976 160.32 204.324C160.208 200.884 159.504 179.508 159.264 172.788L177.44 172.436C177.392 175.684 178.24 195.876 178.544 199.012ZM213.968 104.756C216.896 116.868 222.144 129.812 237.664 142.98C237.664 147.3 237.168 158.228 237.456 162.388C237.136 162.388 213.584 162.548 211.856 162.692C213.646 143.435 214.351 124.092 213.968 104.756ZM183.424 104.996C184.496 124.596 186.464 144.1 189.296 163.044C185.376 162.948 166.992 162.388 164.32 162.516C164.32 159.892 163.664 144.788 163.6 143.316C173.791 132.74 180.68 119.424 183.424 104.996ZM178.624 172.404C179.776 172.404 182.32 172.676 182.176 171.54C181.457 169.038 180.476 166.62 179.248 164.324L189.456 164.468C189.696 165.94 189.92 167.412 190.144 168.884C188.64 170.484 185.6 179.764 185.184 181.444C185.152 181.556 185.147 181.673 185.169 181.787C185.192 181.901 185.241 182.009 185.312 182.1C185.696 182.58 186.704 182.644 187.776 182.644C183.12 190.02 185.648 199.14 187.424 203.636C185.21 201.695 182.616 200.235 179.808 199.348C180.176 196.42 178.832 175.092 178.64 172.404H178.624ZM186.816 189.748C187.155 187.278 187.958 184.895 189.184 182.724C196.565 183.02 203.956 182.94 211.328 182.484C212.208 185.956 220.224 195.06 210.272 208.74C207.571 209.106 204.978 210.036 202.66 211.469C200.341 212.903 198.351 214.808 196.816 217.06C191.152 208.5 185.376 200.052 186.832 189.748H186.816ZM212.56 122.196C212.32 138.324 211.328 152.452 210.144 167.908L191.312 168.404C187.76 143.812 186.24 126.212 184.912 106.004C184.544 100.276 184.176 94.3401 184.304 88.5321C184.512 78.5641 186.544 71.4601 190.704 66.1321C196.592 58.6281 201.36 61.9721 206.032 70.2761C208.715 75.0695 210.56 80.2858 211.488 85.7001C212.928 93.8601 212.64 117.54 212.576 122.196H212.56ZM219.28 209.54C216.978 208.794 214.561 208.469 212.144 208.58C214.836 204.777 216.336 200.258 216.453 195.6C216.57 190.942 215.298 186.354 212.8 182.42C213.84 182.42 216.608 182.42 216.288 181.444C215.744 179.62 214.208 175.828 212.976 172.772C212.176 170.756 211.376 169.012 211.376 168.548C211.472 167.7 211.856 163.924 211.856 163.924C213.344 164.164 220.464 163.924 222.88 163.924C220.848 170.324 221.12 169.524 220.688 170.628C220.368 171.476 220.208 171.892 220.416 172.228C220.624 172.564 221.472 172.548 223.616 172.596C223.616 181.828 224.4 192.5 224.8 201.7C222.208 203.69 220.287 206.426 219.296 209.54H219.28ZM224.64 172.58L242.864 172.756C242.284 181.468 242.316 190.209 242.96 198.916C240.214 197.712 237.202 197.239 234.218 197.545C231.235 197.85 228.381 198.924 225.936 200.66C225.6 191.3 225.344 181.684 224.656 172.58H224.64ZM178.4 53.0281C179.504 40.0841 183.76 22.7561 197.6 12.8041C210.912 21.9401 214.544 37.5401 216.304 51.6681C204.96 50.8361 188.992 50.9481 178.416 53.0281H178.4ZM156.8 94.3561C160.528 94.3561 174.4 94.1641 177.6 94.1481C177.888 101.828 178.182 109.519 178.48 117.22C175.52 124.9 168.88 136.708 162.656 142.5C162.336 144.1 162.752 154.404 162.832 156.26C161.664 156.372 160.496 156.484 159.408 156.644C158.768 135.108 156.8 107.284 156.8 94.3561Z" fill="#27272A"/>
<path d="M79.3443 58.1801C75.0083 57.8441 73.9043 54.6921 72.9443 54.9801C72.6883 54.9801 72.5763 55.3161 72.5123 55.4921C71.1523 58.4521 72.8803 62.1321 75.9043 62.1321C76.8345 62.0324 77.7202 61.6821 78.4669 61.1185C79.2136 60.5549 79.7934 59.7993 80.1443 58.9321C80.1972 58.8218 80.2136 58.6975 80.1911 58.5773C80.1686 58.4571 80.1085 58.3472 80.0194 58.2634C79.9303 58.1796 79.8168 58.1264 79.6955 58.1114C79.5741 58.0965 79.4511 58.1205 79.3443 58.1801ZM78.5763 59.2841C76.4163 62.1641 72.9923 60.8841 73.3283 56.9321C73.992 57.6667 74.8014 58.2552 75.7049 58.6601C76.6084 59.0651 77.5862 59.2775 78.5763 59.2841ZM200 128.132C199.975 127.962 199.889 127.806 199.758 127.693C199.627 127.581 199.461 127.519 199.288 127.519C199.116 127.519 198.949 127.581 198.819 127.693C198.688 127.806 198.602 127.962 198.576 128.132C198.576 130.548 199.376 160.356 199.824 163.588C199.824 163.741 199.885 163.887 199.993 163.995C200.101 164.103 200.248 164.164 200.4 164.164C200.553 164.164 200.7 164.103 200.808 163.995C200.916 163.887 200.976 163.741 200.976 163.588C201.696 153.412 200.336 138.676 200 128.132ZM73.6003 50.6441C74.1123 50.6441 74.2723 50.1001 74.1603 49.5401C73.9363 48.4201 73.0403 48.3561 72.8163 48.9961C72.5923 49.6361 72.9123 50.6441 73.6003 50.6441ZM71.9043 43.8761C71.1839 44.0192 70.5347 44.4059 70.0657 44.9711C69.5966 45.5363 69.3363 46.2456 69.3283 46.9801C69.4563 47.8121 70.1443 47.8121 70.2563 47.2041C70.5923 45.4921 71.3123 45.6041 72.2083 45.0601C72.3374 44.997 72.4408 44.8914 72.501 44.7609C72.5613 44.6305 72.5747 44.4833 72.5389 44.3441C72.5032 44.205 72.4205 44.0824 72.3049 43.9971C72.1893 43.9119 72.0478 43.8691 71.9043 43.8761ZM235.328 194.276C235.328 194.58 235.92 194.484 235.984 194.18C236.24 193.092 235.056 180.692 235.248 177.332C235.248 176.9 234.608 176.916 234.576 177.332C234.281 182.991 234.533 188.665 235.328 194.276ZM198.528 207.284C198.848 207.524 199.344 207.14 199.136 206.788C198.528 205.716 197.664 204.884 196.752 203.236C195.352 200.624 194.545 197.737 194.387 194.778C194.23 191.819 194.726 188.862 195.84 186.116C196.016 185.716 195.376 185.476 195.184 185.892C193.824 189.014 193.271 192.427 193.576 195.819C193.881 199.21 195.033 202.471 196.928 205.3C197.356 206.04 197.896 206.709 198.528 207.284Z" fill="#27272A"/>
</svg>
